<?xml version="1.0" ?><svg height="64px" version="1.1" viewBox="0 0 64 64" width="64px" xmlns="http://www.w3.org/2000/svg" xmlns:xlink="http://www.w3.org/1999/xlink"><title/><desc/><g fill="none" fill-rule="evenodd" id="Filter" stroke="none" stroke-width="1"><path d="M19.5,15 C20.8807119,15 22,16.1192881 22,17.5 L22,46.5 C22,47.8807119 20.8807119,49 19.5,49 C18.1192881,49 17,47.8807119 17,46.5 L17,17.5 C17,16.1192881 18.1192881,15 19.5,15 Z" fill="#000000" id="Rectangle"/><path d="M31.5,15 C32.8807119,15 34,16.1192881 34,17.5 L34,46.5 C34,47.8807119 32.8807119,49 31.5,49 C30.1192881,49 29,47.8807119 29,46.5 L29,17.5 C29,16.1192881 30.1192881,15 31.5,15 Z" fill="#000000" id="Rectangle"/><path d="M43.5,15 C44.8807119,15 46,16.1192881 46,17.5 L46,46.5 C46,47.8807119 44.8807119,49 43.5,49 C42.1192881,49 41,47.8807119 41,46.5 L41,17.5 C41,16.1192881 42.1192881,15 43.5,15 Z" fill="#000000" id="Rectangle"/><path d="M16.5,39 L22.5,39 C23.8807119,39 25,40.1192881 25,41.5 C25,42.8807119 23.8807119,44 22.5,44 L16.5,44 C15.1192881,44 14,42.8807119 14,41.5 C14,40.1192881 15.1192881,39 16.5,39 Z" fill="#000000" id="Rectangle"/><path d="M28.5,30 L34.5,30 C35.8807119,30 37,31.1192881 37,32.5 C37,33.8807119 35.8807119,35 34.5,35 L28.5,35 C27.1192881,35 26,33.8807119 26,32.5 C26,31.1192881 27.1192881,30 28.5,30 Z" fill="#000000" id="Rectangle"/><path d="M40.5,22 L46.5,22 C47.8807119,22 49,23.1192881 49,24.5 C49,25.8807119 47.8807119,27 46.5,27 L40.5,27 C39.1192881,27 38,25.8807119 38,24.5 C38,23.1192881 39.1192881,22 40.5,22 Z" fill="#000000" id="Rectangle"/></g></svg>