<svg width="12" height="12" viewBox="0 0 12 12" fill="none" xmlns="http://www.w3.org/2000/svg">
<path d="M10.5 8.045V5.549C10.5 3.404 10.5 2.3325 9.841 1.666C9.182 1 8.121 1 6 1C3.8785 1 2.818 1 2.159 1.666C1.5 2.3325 1.5 3.405 1.5 5.549V8.0455C1.5 9.5935 1.5 10.368 1.867 10.706C2.042 10.8675 2.263 10.969 2.4985 10.996C2.992 11.0525 3.5685 10.5425 4.721 9.523C5.231 9.0725 5.4855 8.847 5.78 8.788C5.925 8.758 6.075 8.758 6.22 8.788C6.515 8.847 6.7695 9.0725 7.279 9.523C8.4315 10.5425 9.008 11.0525 9.5015 10.9955C9.7365 10.969 9.958 10.8675 10.133 10.706C10.5 10.368 10.5 9.5935 10.5 8.045Z" stroke="white"/>
<path d="M7.5 3H4.5" stroke="white" stroke-linecap="round"/>
</svg>
